<svg width="32" height="32" viewBox="0 0 32 32" fill="none" xmlns="http://www.w3.org/2000/svg">
  <rect width="32" height="32" rx="8" fill="#0ea5e9"/>
  <path d="M8 12V20C8 21.1046 8.89543 22 10 22H14V20H10V12H8Z" fill="white"/>
  <path d="M22 12H18V22H20V18H22C23.1046 18 24 17.1046 24 16V14C24 12.8954 23.1046 12 22 12ZM22 16H20V14H22V16Z" fill="white"/>
  <path d="M12 8C10.8954 8 10 8.89543 10 10V12H12V10H16V12H18V10C18 8.89543 17.1046 8 16 8H12Z" fill="white"/>
  <circle cx="16" cy="25" r="2" fill="white"/>
</svg>